<svg width="48" height="50" viewBox="0 0 48 50" fill="none" xmlns="http://www.w3.org/2000/svg">
<g filter="url(#filter0_d)">
<path d="M39.5066 25.7982C39.5105 23.0173 38.09 20.4255 35.737 18.9205C35.3954 18.7002 34.9389 18.7969 34.7173 19.1363C34.4957 19.4757 34.5929 19.9294 34.9345 20.1497C37.4228 21.7308 38.5793 24.7422 37.7838 27.5688C37.1992 28.1848 36.4194 28.5826 35.575 28.6956C35.0527 28.6946 34.5552 28.474 34.2056 28.0883C34.0674 27.9498 33.8792 27.8719 33.6829 27.8719C33.4866 27.8719 33.2984 27.9498 33.1601 28.0883C32.8747 28.3737 32.8747 28.8346 33.1601 29.12C33.7721 29.7768 34.6301 30.1528 35.5308 30.159H35.6192C36.5659 30.0888 37.468 29.7312 38.2034 29.1346C38.5005 29.8952 38.6528 30.704 38.6525 31.5199C38.6488 34.8965 36.1309 37.7491 32.7626 38.1927C33.8469 36.7745 34.4339 35.0424 34.4338 33.2612C34.4338 32.8572 34.1042 32.5296 33.6976 32.5296C33.291 32.5296 32.9613 32.8572 32.9613 33.2612C32.9616 35.2668 32.0629 37.1684 30.5096 38.4488L30.4286 38.5073C30.2961 38.6171 30.1489 38.7195 30.0016 38.822L29.8765 38.9024C29.7494 38.9914 29.6165 39.0721 29.4789 39.1439L29.2875 39.2463L28.9341 39.4146L28.6764 39.5244L28.3745 39.6341L28.0579 39.7292L27.7929 39.8024L27.4321 39.8829H27.2039L26.7989 39.9414H26.637C26.4897 39.9414 26.3351 39.9414 26.1805 39.9414C24.1012 39.9438 22.136 38.997 20.85 37.3732C20.6758 37.1524 20.3897 37.05 20.1138 37.1098C18.9023 37.3708 17.642 37.2974 16.4694 36.8977C17.5391 36.2824 18.4454 35.422 19.1125 34.388C19.2979 34.0527 19.192 33.6321 18.8696 33.423C18.5473 33.2139 18.1172 33.2869 17.883 33.5905C17.0898 34.8115 15.8998 35.7256 14.5109 36.1806H14.4226C12.352 36.8843 10.0669 36.5516 8.28643 35.2873C6.50591 34.023 5.44881 31.9825 5.44773 29.8077C5.4402 27.3037 6.84094 25.0053 9.07743 23.8519C9.34723 23.7117 9.50232 23.4209 9.46764 23.1203C9.43774 22.8775 9.42299 22.6332 9.42347 22.3886C9.41185 20.3164 10.3665 18.3557 12.0087 17.0787C13.6509 15.8017 15.7956 15.3525 17.8167 15.8621C18.2879 16.4547 19.1567 17.801 18.9505 18.7888C18.9116 18.98 18.9511 19.1787 19.0604 19.3409C19.1696 19.503 19.3394 19.615 19.5322 19.6521H19.6721C20.0275 19.6593 20.3373 19.413 20.4083 19.0668C20.7028 17.6035 19.8708 16.1401 19.2892 15.3206C21.0507 14.1955 23.231 13.9263 25.216 14.589C25.3755 14.6453 25.5498 14.6453 25.7093 14.589C26.4185 14.3384 27.1654 14.2097 27.918 14.2085C28.3247 14.2085 28.6543 13.8809 28.6543 13.4768C28.6543 13.0727 28.3247 12.7451 27.918 12.7451C27.0713 12.7428 26.2293 12.8712 25.4222 13.1256C22.9159 12.4012 20.2134 12.8714 18.1038 14.3987C15.642 13.8353 13.0561 14.4213 11.0834 15.9897C9.11068 17.558 7.96773 19.9366 7.98042 22.4471C7.98042 22.6081 7.98042 22.7544 7.98042 22.9008C4.8182 24.8029 3.31419 28.5624 4.29907 32.103C5.28396 35.6436 8.51755 38.1017 12.2139 38.1195H12.3537C13.1141 38.1079 13.8693 37.9947 14.5993 37.783C16.2283 38.6876 18.1166 39.0201 19.9592 38.7268C21.5208 40.4915 23.7717 41.5019 26.1363 41.4999H26.4676C26.6075 41.4999 26.74 41.4999 26.8726 41.4999L27.2849 41.4487L27.6235 41.3974C27.7634 41.3974 27.8959 41.3462 28.0211 41.3096C28.1405 41.2873 28.2585 41.258 28.3745 41.2218L28.7353 41.1121L29.1328 40.9658C29.2286 40.9292 29.3243 40.8999 29.4126 40.856C29.6348 40.767 29.8512 40.6644 30.0605 40.5487C30.4772 40.3271 30.8738 40.0701 31.2459 39.7804C31.4373 39.7804 31.6361 39.7804 31.8349 39.7804C36.3914 39.7764 40.0842 36.1066 40.0882 31.5784C40.0927 30.3071 39.7923 29.053 39.2121 27.92C39.4029 27.2285 39.5019 26.5152 39.5066 25.7982Z" fill="#FF5C39"/>
<path d="M15.3429 20.0546C14.9688 19.8973 14.5373 20.0708 14.3784 20.4424C13.9461 21.4508 13.7257 22.5363 13.7305 23.6325C13.7292 25.0645 14.1049 26.472 14.8202 27.7152C14.9517 27.9426 15.1953 28.083 15.4593 28.0836C15.7232 28.0841 15.9674 27.9446 16.0998 27.7177C16.2322 27.4908 16.2328 27.2109 16.1013 26.9835C15.05 25.1588 14.9139 22.9517 15.7331 21.0131C15.8914 20.6413 15.7168 20.2124 15.3429 20.0546Z" fill="#FF5C39"/>
<path fill-rule="evenodd" clip-rule="evenodd" d="M43.2171 7.80631C43.549 7.79017 43.8507 7.99703 43.9534 8.31116C44.0725 8.62862 43.9567 8.98583 43.6736 9.17454L25.0465 22.3446C24.9222 22.4341 24.7729 22.4827 24.6195 22.4837C24.3203 22.4854 24.0499 22.3071 23.9352 22.0326C23.8205 21.758 23.8843 21.4418 24.0967 21.2325L33.4029 11.9842H29.2873C28.9918 11.9839 28.7251 11.8082 28.6099 11.5378C28.4965 11.2639 28.5604 10.9491 28.7719 10.7403L38.7922 0.709085C39.0501 0.457982 39.4531 0.429725 39.7439 0.642363C40.0347 0.855001 40.1274 1.2458 39.9629 1.56514L36.7234 7.80631H43.2171ZM35.693 11.7353L31.3565 16.0449L40.9277 9.26961H35.5384C35.2811 9.27014 35.0422 9.13713 34.9082 8.91877C34.7743 8.70042 34.7648 8.42843 34.8831 8.20137L36.5103 5.06981L31.062 10.4842H35.1703C35.4702 10.4827 35.741 10.6621 35.855 10.9378C35.9684 11.2117 35.9045 11.5266 35.693 11.7353Z" fill="#FF5C39"/>
<path d="M25.0028 31.5492C25.0068 27.809 28.0568 24.7779 31.8204 24.7739C32.2271 24.7739 32.5567 24.4463 32.5567 24.0422C32.5567 23.6381 32.2271 23.3105 31.8204 23.3105C27.2436 23.3146 23.5343 27.0008 23.5303 31.5492C23.5303 31.9533 23.8599 32.2809 24.2665 32.2809C24.6731 32.2809 25.0028 31.9533 25.0028 31.5492Z" fill="#FF5C39"/>
</g>
<defs>
<filter id="filter0_d" x="0" y="0.5" width="47.9998" height="48.9999" filterUnits="userSpaceOnUse" color-interpolation-filters="sRGB">
<feFlood flood-opacity="0" result="BackgroundImageFix"/>
<feColorMatrix in="SourceAlpha" type="matrix" values="0 0 0 0 0 0 0 0 0 0 0 0 0 0 0 0 0 0 127 0" result="hardAlpha"/>
<feOffset dy="4"/>
<feGaussianBlur stdDeviation="2"/>
<feComposite in2="hardAlpha" operator="out"/>
<feColorMatrix type="matrix" values="0 0 0 0 0 0 0 0 0 0 0 0 0 0 0 0 0 0 0.25 0"/>
<feBlend mode="normal" in2="BackgroundImageFix" result="effect1_dropShadow"/>
<feBlend mode="normal" in="SourceGraphic" in2="effect1_dropShadow" result="shape"/>
</filter>
</defs>
</svg>
