<svg width="40" height="30" viewBox="0 0 40 30" fill="none" xmlns="http://www.w3.org/2000/svg">
<path fill-rule="evenodd" clip-rule="evenodd" d="M39.2857 23.9031H35.15C34.7555 23.9031 34.4357 24.2277 34.4357 24.6281V25.9984H25.7143C28.9995 24.3035 31.3955 21.2416 32.2786 17.6101C33.6603 17.4474 34.7077 16.2678 34.724 14.856C34.7403 13.4442 33.7205 12.24 32.3429 12.0444C30.9653 11.8488 29.6591 12.7227 29.2931 14.0848C28.927 15.447 29.6153 16.873 30.9 17.4144C29.8463 21.521 26.641 24.6991 22.5714 25.6721C22.1411 24.5365 21.0373 23.8133 19.8405 23.8828C18.6438 23.9523 17.6284 24.7986 17.3286 25.9766H5.51429V24.6064C5.51429 24.206 5.19449 23.8814 4.8 23.8814H0.714286C0.319797 23.8814 0 24.206 0 24.6064V28.7751C0 29.1755 0.319797 29.5001 0.714286 29.5001H4.85C5.24449 29.5001 5.56429 29.1755 5.56429 28.7751V27.3251H17.3786C17.6903 28.5643 18.79 29.4312 20.05 29.4312C21.31 29.4312 22.4097 28.5643 22.7214 27.3251H34.5357V28.7751C34.5357 29.1755 34.8555 29.5001 35.25 29.5001H39.2857C39.6802 29.5001 40 29.1755 40 28.7751V24.6064C39.9884 24.2145 39.672 23.9029 39.2857 23.9031ZM30.5714 14.8116C30.5705 14.1184 31.0699 13.5291 31.7453 13.4261C32.4207 13.3232 33.0685 13.7378 33.2682 14.4007C33.468 15.0636 33.1594 15.775 32.5428 16.0731C32.3591 16.167 32.1556 16.2143 31.9499 16.2109C31.5831 16.2148 31.2303 16.0686 30.9709 15.8054C30.7115 15.5421 30.5675 15.1839 30.5714 14.8116ZM1.38574 28.1008H4.14289V25.3023H1.38574V28.1008ZM21.2285 27.3252V27.3904C20.9651 27.818 20.4964 28.0697 20 28.0502C19.5022 28.0462 19.0456 27.7687 18.8071 27.3252C18.6786 27.1063 18.6142 26.8548 18.6214 26.6002C18.6197 26.3462 18.6837 26.0962 18.8071 25.8752C19.045 25.4505 19.4848 25.1835 19.9659 25.1716C20.4471 25.1598 20.8992 25.4048 21.1571 25.8172C21.1593 25.8364 21.1593 25.8559 21.1571 25.8752C21.3919 26.2847 21.4054 26.7873 21.1928 27.2092L21.2285 27.3252ZM35.8643 28.1153H38.6214V25.3023H35.8643V28.1153Z" fill="#FF5C39"/>
<path fill-rule="evenodd" clip-rule="evenodd" d="M7.01425 17.2477C7.01031 16.2015 6.1736 15.3555 5.14282 15.3555C4.85244 15.4356 4.54376 15.3224 4.37087 15.0724C4.19799 14.8224 4.19799 14.4893 4.37087 14.2393C4.54376 13.9893 4.85244 13.8761 5.14282 13.9562C6.17475 13.9523 7.01033 13.1041 7.01425 12.0567C6.93533 11.762 7.04686 11.4487 7.29314 11.2732C7.53942 11.0977 7.86764 11.0977 8.11392 11.2732C8.3602 11.4487 8.47173 11.762 8.39282 12.0567C8.39673 13.1041 9.23231 13.9523 10.2642 13.9562C10.5546 13.8761 10.8633 13.9893 11.0362 14.2393C11.2091 14.4893 11.2091 14.8224 11.0362 15.0724C10.8633 15.3224 10.5546 15.4356 10.2642 15.3555C9.23347 15.3555 8.39675 16.2015 8.39282 17.2477C8.47173 17.5425 8.3602 17.8558 8.11392 18.0313C7.86764 18.2067 7.53942 18.2067 7.29314 18.0313C7.04686 17.8558 6.93533 17.5425 7.01425 17.2477ZM8.26425 14.6523C8.05549 14.4863 7.86616 14.2965 7.69997 14.0868C7.53819 14.2981 7.35102 14.4881 7.14282 14.6523C7.35286 14.8171 7.54023 15.0097 7.69997 15.225C7.86411 15.0112 8.05364 14.8189 8.26425 14.6523Z" fill="#FF5C39"/>
<path d="M7.55022 6.3001H8.97879C9.37328 6.3001 9.69308 5.9755 9.69308 5.5751C9.69308 5.17469 9.37328 4.8501 8.97879 4.8501H7.55022C7.15573 4.8501 6.83594 5.17469 6.83594 5.5751C6.83594 5.9755 7.15573 6.3001 7.55022 6.3001Z" fill="#FF5C39"/>
<path d="M12.1 6.3001H13.5286C13.9231 6.3001 14.2429 5.9755 14.2429 5.5751C14.2429 5.17469 13.9231 4.8501 13.5286 4.8501H12.1C11.7055 4.8501 11.3857 5.17469 11.3857 5.5751C11.3857 5.9755 11.7055 6.3001 12.1 6.3001Z" fill="#FF5C39"/>
<path d="M10.5287 4.67588C10.9232 4.67588 11.243 4.35128 11.243 3.95088V2.50088C11.243 2.10047 10.9232 1.77588 10.5287 1.77588C10.1342 1.77588 9.81445 2.10047 9.81445 2.50088V3.95088C9.81445 4.35128 10.1342 4.67588 10.5287 4.67588Z" fill="#FF5C39"/>
<path d="M10.5287 9.29404C10.9232 9.29404 11.243 8.96945 11.243 8.56904V7.11904C11.243 6.71864 10.9232 6.39404 10.5287 6.39404C10.1342 6.39404 9.81445 6.71864 9.81445 7.11904V8.56904C9.81445 8.96945 10.1342 9.29404 10.5287 9.29404Z" fill="#FF5C39"/>
<path fill-rule="evenodd" clip-rule="evenodd" d="M19.3998 22.25L14.2855 13.1802C14.1952 12.985 14.1952 12.7592 14.2855 12.564L15.7641 8.707C16.1908 7.64631 16.5254 6.54981 16.7641 5.43C17.0606 4.04851 17.2115 2.6389 17.2141 1.225C17.2141 0.824593 17.5339 0.5 17.9283 0.5H22.0141C22.4086 0.5 22.7283 0.824593 22.7283 1.225C22.7287 2.58199 22.8676 3.93529 23.1426 5.26325C23.1915 5.35988 23.2184 5.46642 23.2212 5.575C23.4573 6.63555 23.7823 7.67367 24.1926 8.67799L25.7569 12.564C25.8339 12.7656 25.8182 12.9916 25.7141 13.1802L20.5998 22.25C20.4682 22.4567 20.2423 22.5816 19.9998 22.5816C19.7573 22.5816 19.5314 22.4567 19.3998 22.25ZM19.2854 12.1868C19.3631 12.5211 19.6613 12.7542 19.9997 12.745C20.338 12.7542 20.6362 12.5211 20.7139 12.1868C20.7214 12.1314 20.7214 12.0753 20.7139 12.02C20.7139 11.6196 20.3941 11.295 19.9997 11.295C19.6052 11.295 19.2854 11.6196 19.2854 12.02C19.2779 12.0753 19.2779 12.1314 19.2854 12.1868ZM18.6357 1.8701H21.3643C21.396 2.8572 21.4963 3.8408 21.6643 4.8136H18.3357C18.5024 3.85036 18.6026 2.8765 18.6357 1.8991V1.8701ZM18.0498 6.24183C17.8067 7.25061 17.4891 8.2394 17.0998 9.19983L15.6855 12.7813L19.3284 19.2628V14.0718C18.3368 13.7279 17.7356 12.7065 17.9074 11.6572C18.0791 10.6079 18.9733 9.83866 20.0213 9.83866C21.0692 9.83866 21.9634 10.6079 22.1351 11.6572C22.3069 12.7065 21.7058 13.7279 20.7141 14.0718V19.2628L24.3284 12.7813L22.8998 9.19983C22.5106 8.2394 22.193 7.25061 21.9498 6.24183H18.0498Z" fill="#FF5C39"/>
</svg>
