<svg width="34" height="40" viewBox="0 0 34 40" fill="none" xmlns="http://www.w3.org/2000/svg">
<path d="M22.4363 33.1C22.0474 33.1 21.7321 33.4198 21.7321 33.8143V37.0072C21.7321 37.9077 21.0144 38.6389 20.1265 38.6429H2.94362C2.05458 38.639 1.33482 37.9089 1.33097 37.0072V3.01441C1.33482 2.11266 2.05458 1.38261 2.94362 1.3787H9.95761C10.2285 2.05424 10.8759 2.49601 11.5949 2.49601C12.3139 2.49601 12.9613 2.05424 13.2322 1.3787H20.1899C21.0778 1.38264 21.7955 2.11382 21.7955 3.01441V6.20726C21.7177 6.49763 21.8276 6.80632 22.0704 6.9792C22.3132 7.15208 22.6368 7.15208 22.8796 6.9792C23.1225 6.80632 23.2324 6.49763 23.1546 6.20726V3.01441C23.1546 2.21 22.8377 1.43895 22.2743 0.872831C21.7108 0.306716 20.9477 -0.00748915 20.1546 0.0001356H2.97179C2.18362 0.0001356 1.42774 0.31771 0.870417 0.882996C0.313098 1.44828 0 2.21498 0 3.01441V36.9857C0 37.7852 0.313098 38.5519 0.870417 39.1171C1.42774 39.6824 2.18362 40 2.97179 40H20.1546C21.7932 39.9961 23.1194 38.6477 23.1194 36.9857V33.7929C23.1084 33.415 22.8089 33.1112 22.4363 33.1Z" fill="#FF5C39"/>
<path fill-rule="evenodd" clip-rule="evenodd" d="M17.2256 20.0001C17.2256 16.9389 19.6722 14.4573 22.6903 14.4573C25.7068 14.4612 28.1511 16.9405 28.155 20.0001C28.155 23.0613 25.7084 25.543 22.6903 25.543C19.6722 25.543 17.2256 23.0613 17.2256 20.0001ZM18.892 21.5986C19.5296 23.1545 21.0288 24.1672 22.69 24.1644C24.9531 24.1565 26.7847 22.2955 26.7886 20.0001C26.7886 18.3151 25.7875 16.7962 24.2525 16.1521C22.7175 15.508 20.9511 15.8656 19.7774 17.058C18.6038 18.2505 18.2543 20.0428 18.892 21.5986Z" fill="#FF5C39"/>
<path fill-rule="evenodd" clip-rule="evenodd" d="M31.1749 16.4341C31.3043 16.7548 31.5967 16.9776 31.9364 17.0144C33.1231 17.1265 34.0233 18.1487 33.9997 19.3573V20.7144C33.9749 21.895 33.0754 22.866 31.9152 22.9644C31.5756 23.0013 31.2832 23.2241 31.1538 23.5448C31.0244 23.8655 31.0788 24.2323 31.2955 24.5001C32.0403 25.4218 31.9733 26.7665 31.1406 27.6073L30.1899 28.5716C29.361 29.4161 28.0353 29.4841 27.1266 28.7287C26.8615 28.5085 26.4985 28.454 26.1819 28.5869C25.8654 28.7198 25.6465 29.0186 25.6125 29.3644C25.4997 30.5514 24.5136 31.4556 23.3379 31.4501H22.014C20.8395 31.4523 19.8554 30.5498 19.7394 29.3644C19.7099 29.0185 19.4925 28.7181 19.176 28.5858C18.8601 28.4486 18.4949 28.5039 18.2323 28.7287C17.3248 29.4875 15.9965 29.4194 15.169 28.5716L14.2042 27.6644C13.3683 26.8251 13.3012 25.4778 14.0493 24.5573C14.2664 24.2884 14.3202 23.9203 14.1891 23.5991C14.0581 23.278 13.7635 23.0561 13.4225 23.0216C12.2523 22.9071 11.3608 21.9069 11.3662 20.7144V19.3216C11.3605 18.1316 12.248 17.1323 13.4155 17.0144C13.7564 16.9799 14.051 16.758 14.1821 16.4369C14.3131 16.1158 14.2594 15.7476 14.0423 15.4787C13.2941 14.5582 13.3613 13.2109 14.1972 12.3716L15.1479 11.4073C15.9754 10.5595 17.3036 10.4913 18.2112 11.2502C18.4749 11.4716 18.8377 11.5267 19.1538 11.3934C19.4698 11.2601 19.6871 10.9602 19.7182 10.6145C19.8342 9.42908 20.8184 8.52662 21.9929 8.52876H23.3379C24.5291 8.513 25.5305 9.43212 25.6336 10.6359C25.6648 10.9817 25.882 11.2815 26.1981 11.4148C26.5142 11.5482 26.877 11.493 27.1407 11.2716C28.0516 10.5152 29.3798 10.5832 30.211 11.4288L31.1617 12.3716C31.9944 13.2124 32.0614 14.5571 31.3167 15.4787C31.0999 15.7466 31.0455 16.1134 31.1749 16.4341ZM31.7883 21.6143C32.2702 21.5769 32.6419 21.1687 32.6404 20.6786L32.6264 19.3214C32.6284 18.8363 32.2646 18.4301 31.7883 18.3857C30.9618 18.2937 30.2495 17.7544 29.9277 16.9768C29.6058 16.1992 29.725 15.3057 30.2391 14.6429C30.5405 14.2699 30.5131 13.7256 30.1757 13.3857L29.225 12.4143C28.8881 12.0742 28.3515 12.0495 27.9856 12.3572C27.3317 12.8928 26.4415 13.0233 25.6649 12.6972C24.8883 12.3711 24.3495 11.6406 24.2603 10.7929C24.2165 10.3098 23.816 9.94084 23.3378 9.94288H22.0631C21.5862 9.94419 21.1876 10.3114 21.1406 10.7929C21.0592 11.6455 20.516 12.3811 19.7322 12.7C18.9542 13.0266 18.0623 12.8951 17.4083 12.3572C17.0423 12.0495 16.5058 12.0742 16.1688 12.4143L15.2111 13.3857C14.8758 13.7275 14.8514 14.2717 15.1548 14.6429C15.6883 15.3057 15.8192 16.2124 15.4952 17.0025C15.1713 17.7926 14.4451 18.3379 13.6055 18.4214C13.1321 18.4693 12.7722 18.8745 12.7745 19.3571V20.7143C12.7942 21.1657 13.129 21.5383 13.5703 21.6C14.4099 21.6835 15.1361 22.2288 15.46 23.0189C15.784 23.809 15.6531 24.7157 15.1196 25.3785C14.8162 25.7497 14.8406 26.2939 15.1759 26.6357L16.1336 27.6071C16.4706 27.9472 17.0071 27.9719 17.3731 27.6642C17.7812 27.3279 18.2908 27.1438 18.8167 27.1428C19.9866 27.1557 20.9587 28.0615 21.0702 29.2428C21.1172 29.7242 21.5157 30.0915 21.9927 30.0928H23.3378C23.8187 30.0986 24.2233 29.7286 24.2673 29.2428C24.3565 28.3951 24.8954 27.6646 25.672 27.3385C26.4486 27.0124 27.3388 27.1428 27.9926 27.6785C28.3586 27.9862 28.8951 27.9615 29.232 27.6214L30.1827 26.65C30.5201 26.3101 30.5476 25.7658 30.2461 25.3928C29.713 24.731 29.5814 23.8256 29.9037 23.036C30.226 22.2463 30.95 21.7002 31.7883 21.6143Z" fill="#FF5C39"/>
<path d="M8.01353 12.0931C7.88123 11.9637 7.70433 11.892 7.52058 11.8931C7.30517 11.9014 7.10537 12.0093 6.97834 12.1859L4.54175 14.6574C4.28686 14.9323 4.28686 15.361 4.54175 15.6359C4.81185 15.89 5.22938 15.89 5.49948 15.6359L6.84454 14.2788V24.4145C6.92788 24.7255 7.2063 24.9414 7.5241 24.9414C7.84191 24.9414 8.12033 24.7255 8.20367 24.4145V14.2216L9.54168 15.5788C9.81277 15.8373 10.2354 15.8373 10.5065 15.5788C10.7613 15.3038 10.7613 14.8752 10.5065 14.6002L8.01353 12.0931Z" fill="#FF5C39"/>
<path fill-rule="evenodd" clip-rule="evenodd" d="M11.6967 37.4785C10.3821 37.4785 9.31641 36.3975 9.31641 35.0642C9.32027 33.7324 10.3837 32.6538 11.6967 32.6499C13.0112 32.6499 14.0769 33.7308 14.0769 35.0642C14.0769 36.3975 13.0112 37.4785 11.6967 37.4785ZM12.7039 35.0738C12.709 34.5037 12.2589 34.0365 11.6969 34.0287C11.4236 34.0248 11.1603 34.1323 10.9657 34.3269C10.7712 34.5216 10.6617 34.7872 10.6617 35.0644C10.6617 35.6345 11.1161 36.0974 11.6782 36.1C12.2403 36.1026 12.6987 35.6439 12.7039 35.0738Z" fill="#FF5C39"/>
<path d="M10.6621 6.06452C10.6621 5.67003 10.3468 5.35024 9.95792 5.35024H4.23265C3.94637 5.27133 3.64203 5.38285 3.47158 5.62913C3.30114 5.87541 3.30114 6.20363 3.47158 6.44991C3.64203 6.69619 3.94637 6.80772 4.23265 6.72881H9.95792C10.3284 6.72973 10.6362 6.43936 10.6621 6.06452Z" fill="#FF5C39"/>
<path d="M14.1828 5.3788C13.8966 5.29989 13.5922 5.41142 13.4218 5.6577C13.2513 5.90398 13.2513 6.23219 13.4218 6.47848C13.5922 6.72476 13.8966 6.83628 14.1828 6.75737H16.2955C16.5818 6.83628 16.8861 6.72476 17.0565 6.47848C17.227 6.23219 17.227 5.90398 17.0565 5.6577C16.8861 5.41142 16.5818 5.29989 16.2955 5.3788H14.1828Z" fill="#FF5C39"/>
</svg>
