<svg width="40" height="40" viewBox="0 0 40 40" fill="none" xmlns="http://www.w3.org/2000/svg">
<path d="M24.8714 12.1003C20.8615 9.62701 15.6349 10.5486 12.7128 14.2443C9.79073 17.9399 10.0993 23.2382 13.4307 26.5696C16.7621 29.901 22.0604 30.2096 25.756 27.2875C29.4517 24.3654 30.3733 19.1388 27.9 15.1289L26.8571 16.1717C27.5149 17.3404 27.8594 18.6592 27.8571 20.0003C27.8571 24.3397 24.3394 27.8574 20 27.8574C15.6606 27.8574 12.1429 24.3397 12.1429 20.0003C12.1429 15.6609 15.6606 12.1432 20 12.1432C21.3411 12.1409 22.6599 12.4854 23.8286 13.1432L24.8714 12.1003Z" fill="white"/>
<path d="M20.5001 16.4716C20.3351 16.4427 20.1677 16.4283 20.0001 16.4287C18.0277 16.4287 16.4287 18.0277 16.4287 20.0001C16.4287 21.9726 18.0277 23.5716 20.0001 23.5716C21.9726 23.5716 23.5716 21.9726 23.5716 20.0001C23.572 19.8325 23.5576 19.6652 23.5287 19.5001L21.5144 21.5144C21.2109 21.8194 20.8227 22.026 20.4001 22.1073C20.1356 22.1549 19.8647 22.1549 19.6001 22.1073C19.1776 22.026 18.7893 21.8194 18.4859 21.5144C17.6503 20.6778 17.6503 19.3225 18.4859 18.4859L20.5001 16.4716Z" fill="white"/>
<path fill-rule="evenodd" clip-rule="evenodd" d="M19.9997 20.7186C19.8092 20.7186 19.6267 20.6425 19.4925 20.5073C19.3573 20.3732 19.2812 20.1906 19.2812 20.0002C19.2812 19.8097 19.3573 19.6272 19.4925 19.493L33.6282 5.35732L34.0925 3.05018C34.1196 2.91244 34.1867 2.78573 34.2854 2.68589L35.7997 1.17161C35.9746 0.995053 36.2286 0.922073 36.4705 0.978908C36.7124 1.03574 36.9074 1.21422 36.9854 1.45018L37.3783 2.62161L38.5497 3.01447C38.7856 3.09242 38.9641 3.28741 39.0209 3.52933C39.0778 3.77124 39.0048 4.02531 38.8282 4.20018L37.314 5.71447C37.2141 5.81315 37.0874 5.88023 36.9497 5.90732L34.6425 6.37161L20.5068 20.5073C20.3727 20.6425 20.1901 20.7186 19.9997 20.7186ZM35.9926 3.02166L35.4498 3.57166L35.1998 4.83594L36.4569 4.5788L37.0069 4.03594L36.5855 3.89309C36.3733 3.82189 36.2067 3.65531 36.1355 3.44309L35.9926 3.02166Z" fill="white"/>
<path d="M6.87183 7.857C7.04639 8.06084 7.32048 8.14963 7.58141 8.08686C7.84234 8.0241 8.04607 7.82037 8.10884 7.55944C8.1716 7.29851 8.08281 7.02442 7.87897 6.84986L6.87183 5.83557C6.69064 5.65439 6.42656 5.58362 6.17906 5.64994C5.93156 5.71626 5.73823 5.90958 5.67192 6.15709C5.6056 6.40459 5.67636 6.66867 5.85754 6.84986L6.87183 7.857Z" fill="white"/>
<path d="M33.1281 32.1429C32.8447 31.9003 32.4223 31.9166 32.1584 32.1804C31.8946 32.4442 31.8783 32.8667 32.121 33.1501L33.1281 34.1644C33.3093 34.3456 33.5734 34.4163 33.8209 34.35C34.0684 34.2837 34.2617 34.0904 34.328 33.8429C34.3944 33.5954 34.3236 33.3313 34.1424 33.1501L33.1281 32.1429Z" fill="white"/>
<path d="M6.87183 32.1428L5.85754 33.1499C5.67636 33.3311 5.6056 33.5952 5.67192 33.8427C5.73823 34.0902 5.93156 34.2835 6.17906 34.3498C6.42656 34.4161 6.69064 34.3454 6.87183 34.1642L7.87897 33.1499C8.08281 32.9753 8.1716 32.7013 8.10884 32.4403C8.04607 32.1794 7.84234 31.9757 7.58141 31.9129C7.32048 31.8501 7.04639 31.9389 6.87183 32.1428Z" fill="white"/>
<path d="M39.2857 19.2857H35C34.8583 16.297 33.826 13.4189 32.0357 11.0214L31.0143 12.0429C32.5518 14.1576 33.4404 16.6744 33.5714 19.2857H32.6571C32.2627 19.2857 31.9429 19.6055 31.9429 20C31.9429 20.3945 32.2627 20.7143 32.6571 20.7143H33.5714C33.2145 27.6619 27.6619 33.2145 20.7143 33.5714V32.6643C20.7143 32.2698 20.3945 31.95 20 31.95C19.6055 31.95 19.2857 32.2698 19.2857 32.6643V33.5714C12.3511 33.2161 6.80321 27.6836 6.42857 20.75H7.33571C7.7302 20.75 8.05 20.4302 8.05 20.0357C8.05 19.6412 7.7302 19.3214 7.33571 19.3214H6.42857C6.80321 12.3878 12.3511 6.85535 19.2857 6.5V7.40714C19.2857 7.80163 19.6055 8.12143 20 8.12143C20.3945 8.12143 20.7143 7.80163 20.7143 7.40714V6.42857C23.3256 6.55962 25.8424 7.44816 27.9571 8.98571L28.9786 7.96429C26.5811 6.17405 23.703 5.14172 20.7143 5V0.714286C20.7143 0.319797 20.3945 0 20 0C19.6055 0 19.2857 0.319797 19.2857 0.714286V5.03571C11.5631 5.3946 5.37821 11.5641 5 19.2857H0.714286C0.319797 19.2857 0 19.6055 0 20C0 20.3945 0.319797 20.7143 0.714286 20.7143H5C5.36037 28.4499 11.5501 34.6396 19.2857 35V39.2857C19.2857 39.6802 19.6055 40 20 40C20.3945 40 20.7143 39.6802 20.7143 39.2857V35C28.4499 34.6396 34.6396 28.4499 35 20.7143H39.2857C39.6802 20.7143 40 20.3945 40 20C40 19.6055 39.6802 19.2857 39.2857 19.2857Z" fill="white"/>
</svg>
