<svg width="40" height="30" viewBox="0 0 40 30" fill="none" xmlns="http://www.w3.org/2000/svg">
<path d="M5.393 4.6377C4.99851 4.6377 4.67871 4.95765 4.67871 5.35233C4.67871 5.74702 4.99851 6.06697 5.393 6.06697H7.80014C8.19463 6.06697 8.51442 5.74702 8.51442 5.35233C8.51442 4.95765 8.19463 4.6377 7.80014 4.6377H5.393Z" fill="#FF5C39"/>
<path d="M16.5935 5.35233C16.5935 4.95765 16.2737 4.6377 15.8792 4.6377H13.4721C13.0776 4.6377 12.7578 4.95765 12.7578 5.35233C12.7578 5.74702 13.0776 6.06697 13.4721 6.06697H15.8792C16.2737 6.06697 16.5935 5.74702 16.5935 5.35233Z" fill="#FF5C39"/>
<path d="M20.8998 4.6377C20.5053 4.6377 20.1855 4.95765 20.1855 5.35233C20.1855 5.74702 20.5053 6.06697 20.8998 6.06697H28.4427C28.8372 6.06697 29.157 5.74702 29.157 5.35233C29.157 4.95765 28.8372 4.6377 28.4427 4.6377H20.8998Z" fill="#FF5C39"/>
<path fill-rule="evenodd" clip-rule="evenodd" d="M2.72857 21.1745H23.4429H23.4714C23.8659 21.1745 24.1857 21.4944 24.1857 21.8891C24.1857 22.2838 23.8659 22.6037 23.4714 22.6037H22.7571C21.3025 22.6782 20.1612 23.8799 20.1612 25.3372C20.1612 26.7945 21.3025 27.9963 22.7571 28.0707C23.1516 28.0707 23.4714 28.3907 23.4714 28.7854C23.4714 29.18 23.1516 29.5 22.7571 29.5H11.7357C11.3412 29.5 11.0214 29.18 11.0214 28.7854C11.0214 28.3907 11.3412 28.0707 11.7357 28.0707C13.1904 27.9963 14.3317 26.7945 14.3317 25.3372C14.3317 23.8799 13.1904 22.6782 11.7357 22.6037H2.74286C1.2308 22.6038 0.00393764 21.3795 0 19.8667V3.24421C0.00392534 1.73025 1.22965 0.503927 2.74286 0.5H31.75C33.2632 0.503927 34.4889 1.73025 34.4929 3.24421V8.56826C34.4929 8.96294 34.1731 9.2829 33.7786 9.2829C33.3841 9.2829 33.0643 8.96294 33.0643 8.56826V3.24421C33.0604 2.51962 32.4742 1.93318 31.75 1.92928H2.74286C2.39429 1.92928 2.05999 2.06781 1.81352 2.31441C1.56704 2.56101 1.42857 2.89547 1.42857 3.24421V19.8667C1.42856 20.5862 2.00945 21.1705 2.72857 21.1745ZM14.7288 28.0707H19.7288C18.417 26.4847 18.417 24.1898 19.7288 22.6038H14.7288C16.0405 24.1898 16.0405 26.4847 14.7288 28.0707Z" fill="#FF5C39"/>
<path d="M13.6567 10.8979C13.4051 10.5981 12.9592 10.5567 12.6567 10.805L10.5853 12.5272C10.422 12.6633 10.3278 12.865 10.3281 13.0775C10.3278 13.2901 10.422 13.4918 10.5853 13.6278L12.6567 15.3501C12.7852 15.4566 12.9469 15.5148 13.1138 15.5144C13.3238 15.5127 13.5223 15.4186 13.6567 15.2572C13.888 14.961 13.8505 14.5363 13.571 14.2853L12.1424 13.1061L13.571 11.9341C13.7247 11.8113 13.821 11.6306 13.8373 11.4345C13.8535 11.2384 13.7882 11.0442 13.6567 10.8979Z" fill="#FF5C39"/>
<path d="M21.8354 10.8049C21.5317 10.5523 21.0808 10.5939 20.8283 10.8978C20.5758 11.2017 20.6174 11.6529 20.9211 11.9055L22.3497 13.0775L20.9211 14.2566C20.6948 14.4502 20.6123 14.764 20.714 15.044C20.8158 15.324 21.0805 15.5114 21.3783 15.5144C21.5452 15.5147 21.7069 15.4566 21.8354 15.35L23.8997 13.6277C24.063 13.4917 24.1572 13.29 24.1569 13.0775C24.1572 12.8649 24.063 12.6632 23.8997 12.5272L21.8354 10.8049Z" fill="#FF5C39"/>
<path d="M16.1428 16.372C16.2187 16.3818 16.2955 16.3818 16.3714 16.372C16.6915 16.3887 16.9835 16.1901 17.0857 15.8861L18.7928 10.7121C18.9005 10.4641 18.8591 10.1766 18.6858 9.96908C18.5125 9.7616 18.2371 9.66973 17.974 9.73169C17.711 9.79365 17.5054 9.99885 17.4428 10.2619L15.7143 15.4644C15.585 15.8333 15.7759 16.2377 16.1428 16.372Z" fill="#FF5C39"/>
<path fill-rule="evenodd" clip-rule="evenodd" d="M37.9644 16.1219C38.0204 16.2597 38.1516 16.3519 38.3001 16.3578C39.2529 16.4215 39.9947 17.2105 40.0001 18.1658V18.6875C39.9947 19.6428 39.2529 20.4319 38.3001 20.4955C38.1516 20.5014 38.0204 20.5936 37.9644 20.7314C37.9035 20.8691 37.9317 21.0299 38.0358 21.1387C38.6629 21.8583 38.6286 22.9401 37.9573 23.6185L37.593 23.983C36.9155 24.6626 35.8263 24.697 35.1073 24.0616C34.9954 23.9681 34.8409 23.9443 34.7061 23.9998C34.5713 24.0552 34.4782 24.1808 34.4644 24.326C34.4078 25.2836 33.6161 26.0319 32.6573 26.034H32.143C31.1828 26.0321 30.3889 25.2848 30.3287 24.326C30.32 24.178 30.2273 24.0481 30.0903 23.9917C29.9532 23.9353 29.796 23.9625 29.6858 24.0616C28.9692 24.6961 27.8823 24.6616 27.2073 23.983L26.843 23.6185C26.1646 22.9431 26.1302 21.8557 26.7644 21.1387C26.8634 21.0284 26.8906 20.8712 26.8342 20.734C26.7779 20.5969 26.648 20.5042 26.5001 20.4955C25.5445 20.4354 24.7986 19.6454 24.793 18.6875V18.1658C24.7986 17.2079 25.5445 16.4179 26.5001 16.3578C26.648 16.3491 26.7779 16.2564 26.8342 16.1193C26.8906 15.9822 26.8634 15.8249 26.7644 15.7146C26.1302 14.9976 26.1646 13.9102 26.843 13.2348L27.2073 12.8632C27.8853 12.1915 28.9666 12.1572 29.6858 12.7846C29.7945 12.8887 29.9553 12.917 30.093 12.8561C30.2306 12.8001 30.3228 12.6687 30.3287 12.5202C30.3925 11.5642 31.1853 10.821 32.143 10.8193H32.6573C33.6135 10.8212 34.4042 11.5653 34.4644 12.5202C34.4696 12.6711 34.5656 12.8039 34.7073 12.8561C34.8416 12.9157 34.9984 12.8904 35.1073 12.7917C35.8263 12.1563 36.9155 12.1907 37.593 12.8703L37.9573 13.2277C38.6296 13.9085 38.6639 14.9927 38.0358 15.7146C37.9317 15.8234 37.9035 15.9842 37.9644 16.1219ZM38.2074 19.0662C38.4109 19.0586 38.5718 18.8912 38.5717 18.6875L38.5645 18.1658C38.5647 17.9621 38.4037 17.7947 38.2003 17.787C37.5099 17.7403 36.9057 17.3064 36.6406 16.6669C36.3756 16.0275 36.4956 15.293 36.9503 14.7713C37.0899 14.6227 37.0899 14.391 36.9503 14.2424L36.586 13.878C36.4375 13.7382 36.2059 13.7382 36.0574 13.878C35.5374 14.3343 34.8033 14.4552 34.1646 14.1896C33.5258 13.9239 33.0937 13.318 33.0503 12.6274C33.0355 12.4242 32.8681 12.2661 32.6645 12.2629H32.1503C31.9453 12.2626 31.7759 12.4226 31.7645 12.6274C31.7232 13.3209 31.2899 13.93 30.6484 14.1961C30.007 14.4623 29.27 14.3387 28.7503 13.878C28.6018 13.7382 28.3702 13.7382 28.2217 13.878L27.8574 14.2424C27.7177 14.391 27.7177 14.6227 27.8574 14.7713C28.3138 15.296 28.4319 16.0349 28.1617 16.6758C27.8915 17.3168 27.2801 17.7479 26.586 17.787C26.3841 17.7982 26.2251 17.9635 26.2217 18.1658V18.6875C26.2251 18.8897 26.3841 19.055 26.586 19.0662C27.2763 19.1129 27.8806 19.5469 28.1456 20.1864C28.4106 20.8258 28.2907 21.5603 27.836 22.082C27.6963 22.2306 27.6963 22.4623 27.836 22.6108L28.2003 22.9753C28.3488 23.1151 28.5803 23.1151 28.7288 22.9753C29.0604 22.6836 29.4873 22.5234 29.9288 22.5251C30.1736 22.5226 30.4163 22.5688 30.6431 22.6609C31.2827 22.927 31.715 23.5342 31.7574 24.2259C31.7722 24.429 31.9396 24.5872 32.1431 24.5904H32.6788C32.8824 24.5872 33.0498 24.429 33.0645 24.2259C33.108 23.5352 33.5401 22.9294 34.1789 22.6637C34.8176 22.3981 35.5517 22.5189 36.0717 22.9753C36.2202 23.1151 36.4517 23.1151 36.6003 22.9753L36.9645 22.6108C37.1008 22.4609 37.1008 22.2319 36.9645 22.082C36.5046 21.563 36.3805 20.8271 36.6448 20.1859C36.909 19.5446 37.5155 19.1101 38.2074 19.0662Z" fill="#FF5C39"/>
<path fill-rule="evenodd" clip-rule="evenodd" d="M29.5033 17.229C29.9894 16.0587 31.1328 15.2972 32.3995 15.3001C34.1218 15.304 35.517 16.6999 35.5209 18.423C35.5238 19.6903 34.7626 20.8343 33.5929 21.3206C32.4232 21.807 31.0758 21.5396 30.1801 20.6435C29.2844 19.7474 29.0172 18.3993 29.5033 17.229ZM30.8239 19.0788C31.0893 19.7141 31.7113 20.1267 32.3996 20.1238C33.334 20.1159 34.0886 19.3579 34.0924 18.4229C34.0924 17.7344 33.6775 17.1137 33.0413 16.8509C32.4052 16.5881 31.6735 16.7349 31.1878 17.2228C30.7022 17.7107 30.5585 18.4435 30.8239 19.0788Z" fill="#FF5C39"/>
</svg>
